<?xml version="1.0" encoding="utf-8"?>
<!-- Generator: Adobe Illustrator 21.0.0, SVG Export Plug-In . SVG Version: 6.00 Build 0)  -->
<svg version="1.1" xmlns="http://www.w3.org/2000/svg" xmlns:xlink="http://www.w3.org/1999/xlink" x="0px" y="0px"
	 viewBox="0 0 330.8 106.8" style="enable-background:new 0 0 330.8 106.8;" xml:space="preserve">
<style type="text/css">
	.st0{display:none;}
	.st1{fill:url(#_x3C_Contour_x3E__2_);}
	.st2{fill:url(#_x3C_Contour_x3E__9_);}
	.st3{opacity:0.3;fill:url(#_x3C_Shine_x3E__1_);}
	.st4{opacity:0.5;fill:url(#_x3C_Shine_x3E__2_);}
	.st5{fill:#FFFFFF;}
	.st6{fill:url(#_x3C_Contour_x3E__10_);}
	.st7{fill:url(#_x3C_Contour_x3E__11_);}
	.st8{opacity:0.3;fill:url(#_x3C_Shine_x3E__6_);}
	.st9{display:inline;fill:#262262;}
	.st10{font-family:'Calibri';}
	.st11{font-size:36px;}
</style>
<g id="Background" class="st0">
</g>
<g id="Line">
	
		<linearGradient id="_x3C_Contour_x3E__2_" gradientUnits="userSpaceOnUse" x1="222.9942" y1="-60.3126" x2="124.2419" y2="45.297" gradientTransform="matrix(6.000000e-02 -0.9982 -0.9982 -6.000000e-02 194.4566 216.0642)">
		<stop  offset="0.197" style="stop-color:#00A79D"/>
		<stop  offset="0.9507" style="stop-color:#262262"/>
	</linearGradient>
	<path id="_x3C_Contour_x3E__5_" class="st1" d="M189.1,26.4c28.6-23.9,75.1-23.7,104.3-2.6c-19.7,9.7-34,31.6-51,45.6
		c-36.1,29.7-92.5,36.5-134.5,9.4c15.4,5.4,36.1-5.3,48-16.5C167.8,51.2,176.5,36.9,189.1,26.4z"/>
	
		<linearGradient id="_x3C_Contour_x3E__9_" gradientUnits="userSpaceOnUse" x1="150.1088" y1="-64.9937" x2="206.9118" y2="-64.9937" gradientTransform="matrix(0.1019 -0.9948 -0.9948 -0.1019 192.2482 210.5934)">
		<stop  offset="0.532" style="stop-color:#00A79D"/>
		<stop  offset="1" style="stop-color:#262262"/>
	</linearGradient>
	<path id="_x3C_Contour_x3E__3_" class="st2" d="M268.1,52.3c13.5,17.4,38.7,24.4,58.1,13.7c-10.2-8-14-22.1-22.1-32.3
		C286.7,12.3,252.7,4.4,224.4,10c9.6-1.2,23.2,9.7,28.8,17.6C258.7,35.5,262.2,44.7,268.1,52.3z"/>
	
		<linearGradient id="_x3C_Shine_x3E__1_" gradientUnits="userSpaceOnUse" x1="64.2606" y1="7.0693" x2="207.4852" y2="7.9034" gradientTransform="matrix(0.1019 -0.9948 -0.9948 -0.1019 192.2482 210.5934)">
		<stop  offset="0" style="stop-color:#F9F8F7;stop-opacity:0"/>
		<stop  offset="0.4443" style="stop-color:#F9F8F7;stop-opacity:0.8791"/>
		<stop  offset="0.5054" style="stop-color:#F9F8F7"/>
		<stop  offset="1" style="stop-color:#F9F8F7;stop-opacity:0"/>
	</linearGradient>
	<path id="_x3C_Shine_x3E__5_" class="st3" d="M189.4,26.5C218,2.6,264.5,2.8,293.7,23.9c-19.7,9.7-34,31.6-51,45.6
		c-36.1,29.7-92.5,36.5-134.6,9.4c15.4,5.4,36.2-5.3,48.1-16.5C168.1,51.2,176.9,36.9,189.4,26.5z"/>
	
		<linearGradient id="_x3C_Shine_x3E__2_" gradientUnits="userSpaceOnUse" x1="112.7605" y1="-65.0708" x2="217.4356" y2="-65.5113" gradientTransform="matrix(0.1019 -0.9948 -0.9948 -0.1019 192.2482 210.5934)">
		<stop  offset="0" style="stop-color:#F9F8F7;stop-opacity:0"/>
		<stop  offset="0.4443" style="stop-color:#F9F8F7;stop-opacity:0.8791"/>
		<stop  offset="0.5054" style="stop-color:#F9F8F7"/>
		<stop  offset="0.5396" style="stop-color:#F9F8F7;stop-opacity:0.9308"/>
		<stop  offset="1" style="stop-color:#F9F8F7;stop-opacity:0"/>
	</linearGradient>
	<path id="_x3C_Shine_x3E__4_" class="st4" d="M268.4,52.4c13.5,17.4,38.7,24.4,58.1,13.7c-10.2-8-14-22.1-22.1-32.3
		C287.1,12.4,253,4.4,224.7,10.1c9.6-1.2,23.2,9.7,28.8,17.6C259.1,35.5,262.5,44.8,268.4,52.4z"/>
	<path id="_x3C_Contour_x3E_" class="st5" d="M124.6,79.2c19-2.9,34.7-16.3,46.7-34.3c-0.1-0.1-0.2-0.1-0.3-0.2
		c-12.3,17.9-28.2,30.4-46.7,33.2c-5.7,0.9-11.6,0.9-17.5,1c0.4,0.4,0.8,0.8,1.2,1.3C113.6,80.2,119.2,80.1,124.6,79.2z"/>
	
		<linearGradient id="_x3C_Contour_x3E__10_" gradientUnits="userSpaceOnUse" x1="228.8996" y1="-179.8936" x2="130.1499" y2="-74.2869" gradientTransform="matrix(-6.060000e-02 -0.9982 0.9982 -6.060000e-02 260.8209 215.6239)">
		<stop  offset="0.197" style="stop-color:#00A79D"/>
		<stop  offset="0.9507" style="stop-color:#262262"/>
	</linearGradient>
	<path id="_x3C_Contour_x3E__7_" class="st6" d="M146.4,27.3C117.8,3.4,71.3,3.7,42.1,24.8c19.7,9.7,34.1,31.6,51,45.5
		c36.1,29.7,92.5,36.5,134.5,9.3c-15.4,5.4-36.1-5.3-48-16.5C167.7,52,158.9,37.8,146.4,27.3z"/>
	
		<linearGradient id="_x3C_Contour_x3E__11_" gradientUnits="userSpaceOnUse" x1="162.6465" y1="-185.7822" x2="219.2563" y2="-185.7822" gradientTransform="matrix(-0.1024 -0.9947 0.9947 -0.1024 263.1995 211.5548)">
		<stop  offset="0.532" style="stop-color:#00A79D"/>
		<stop  offset="1" style="stop-color:#262262"/>
	</linearGradient>
	<path id="_x3C_Contour_x3E__4_" class="st7" d="M6.3,67.1c10.2-8,17-22.2,25.1-32.3c17.3-21.5,51.4-29.5,79.7-23.9
		c-9.6-1.2-23.2,9.7-28.8,17.6c-5.5,7.9-9,17.1-14.9,24.8C53.8,70.7,25.6,77.7,6.3,67.1"/>
	
		<linearGradient id="_x3C_Shine_x3E__6_" gradientUnits="userSpaceOnUse" x1="76.6069" y1="-112.2131" x2="219.8294" y2="-111.379" gradientTransform="matrix(-0.1024 -0.9947 0.9947 -0.1024 263.1995 211.5548)">
		<stop  offset="0" style="stop-color:#F9F8F7;stop-opacity:0"/>
		<stop  offset="0.4443" style="stop-color:#F9F8F7;stop-opacity:0.8791"/>
		<stop  offset="0.5054" style="stop-color:#F9F8F7"/>
		<stop  offset="1" style="stop-color:#F9F8F7;stop-opacity:0"/>
	</linearGradient>
	<path id="_x3C_Shine_x3E__3_" class="st8" d="M146,27.4C117.4,3.5,70.9,3.8,41.8,24.9c19.7,9.7,34.1,31.6,51,45.5
		c36.1,29.7,92.5,36.4,134.6,9.3c-15.4,5.4-36.2-5.3-48.1-16.4C167.3,52.1,158.6,37.8,146,27.4z"/>
	<path id="_x3C_Contour_x3E__1_" class="st5" d="M210.8,80.1c-19-2.8-34.7-16.3-46.7-34.3c0.1-0.1,0.2-0.1,0.3-0.2
		c12.3,17.9,28.3,30.4,46.7,33.2c5.7,0.9,11.6,0.9,17.5,1c-0.4,0.4-0.8,0.8-1.2,1.3C221.9,81,216.3,80.9,210.8,80.1z"/>
</g>
<g id="Font_place" class="st0">
	<text transform="matrix(1 0 0 1 49.4668 131.6338)" class="st9 st10 st11">Business Logotype</text>
</g>
</svg>
